{
    "asset" : {
        "generator" : "Khronos glTF Blender I/O v3.2.43",
        "version" : "2.0"
    },
    "scene" : 0,
    "scenes" : [
        {
            "name" : "Scene",
            "nodes" : [
                0
            ]
        }
    ],
    "nodes" : [
        {
            "mesh" : 0,
            "name" : "Curve",
            "rotation" : [
                0.7060214877128601,
                0,
                0,
                0.7081904411315918
            ],
            "scale" : [
                287.8100891113281,
                28.781009674072266,
                287.81011962890625
            ],
            "translation" : [
                0.17234793305397034,
                0,
                -0.2771178185939789
            ]
        }
    ],
    "materials" : [
        {
            "doubleSided" : true,
            "name" : "SVGMat",
            "pbrMetallicRoughness" : {
                "baseColorFactor" : [
                    1,
                    1,
                    1,
                    1
                ],
                "metallicFactor" : 0,
                "roughnessFactor" : 0.4000000059604645
            }
        }
    ],
    "meshes" : [
        {
            "name" : "Curve",
            "primitives" : [
                {
                    "attributes" : {
                        "POSITION" : 0,
                        "NORMAL" : 1,
                        "TEXCOORD_0" : 2
                    },
                    "indices" : 3,
                    "material" : 0
                }
            ]
        }
    ],
    "accessors" : [
        {
            "bufferView" : 0,
            "componentType" : 5126,
            "count" : 1868,
            "max" : [
                0.007289060391485691,
                0.004999999888241291,
                0.004141202196478844
            ],
            "min" : [
                -0.0045645153149962425,
                -0.004999999888241291,
                -0.0035983948037028313
            ],
            "type" : "VEC3"
        },
        {
            "bufferView" : 1,
            "componentType" : 5126,
            "count" : 1868,
            "type" : "VEC3"
        },
        {
            "bufferView" : 2,
            "componentType" : 5126,
            "count" : 1868,
            "type" : "VEC2"
        },
        {
            "bufferView" : 3,
            "componentType" : 5123,
            "count" : 3252,
            "type" : "SCALAR"
        }
    ],
    "bufferViews" : [
        {
            "buffer" : 0,
            "byteLength" : 22416,
            "byteOffset" : 0
        },
        {
            "buffer" : 0,
            "byteLength" : 22416,
            "byteOffset" : 22416
        },
        {
            "buffer" : 0,
            "byteLength" : 14944,
            "byteOffset" : 44832
        },
        {
            "buffer" : 0,
            "byteLength" : 6504,
            "byteOffset" : 59776
        }
    ],
    "buffers" : [
        {
            "byteLength" : 66280,
            "uri" : "data:application/octet-stream;base64,"
        }
    ]
}
